<?xml version="1.0" encoding="UTF-8"?><svg id="Layer_2" xmlns="http://www.w3.org/2000/svg" viewBox="0 0 509.62 131.88"><defs><style>.cls-1{fill:#177fc3;}.cls-2{fill:#464e4f;}</style></defs><g id="katman_1"><g><path class="cls-1" d="M0,0H45.07c31.51,0,49.85,16.23,49.85,43.93s-18.34,44.31-49.85,44.31H28.27v43.55H0V0ZM44.5,64.94c13.37,0,21.39-7.64,21.39-20.82s-8.02-20.82-21.39-20.82H28.27v41.64h16.23Z"/><path class="cls-1" d="M168.98,103.61h-51.57l-9.17,28.27h-29.6L125.63,.09h37.24l46.98,131.78h-31.7l-9.17-28.27Zm-6.87-21.01l-18.14-55.77h-1.53l-18.14,55.77h37.82Z"/><path class="cls-1" d="M224.18,82.03L177.76,.09h31.7l28.66,55.2h1.53L269.07,.09h29.8l-46.42,81.93v49.85h-28.27v-49.85Z"/><path class="cls-2" d="M333.07,23.39h-36.86L309.48,.09h88.91V23.39h-37.05v108.48h-28.27V23.39Z"/><path class="cls-2" d="M478.87,131.88l-25.4-43.74h-17.57v43.74h-28.27V.09h45.07c31.51,0,49.85,16.23,49.85,43.93,0,19.48-8.79,33.23-24.83,39.73l31.9,48.13h-30.75Zm-42.97-66.85h16.23c13.37,0,21.39-7.83,21.39-21.01s-8.02-20.63-21.39-20.63h-16.23v41.64Z"/></g></g></svg>